<svg xmlns="http://www.w3.org/2000/svg" xmlns:xlink="http://www.w3.org/1999/xlink" width="500" zoomAndPan="magnify" viewBox="0 0 375 374.999991" height="500" preserveAspectRatio="xMidYMid meet" version="1.0"><defs><filter x="0%" y="0%" width="100%" height="100%" id="3fdd6e38e8"><feColorMatrix values="0 0 0 0 1 0 0 0 0 1 0 0 0 0 1 0 0 0 1 0" color-interpolation-filters="sRGB"/></filter><g/><mask id="51b813b37d"><g filter="url(#3fdd6e38e8)"><rect x="-37.5" width="450" fill="#000000" y="-37.499999" height="449.999989" fill-opacity="0.6"/></g></mask><clipPath id="2b12c45bb4"><path d="M 0.5 0.445312 L 300.5 0.445312 L 300.5 22.722656 L 0.5 22.722656 Z M 0.5 0.445312 " clip-rule="nonzero"/></clipPath><clipPath id="7a42bef5ed"><rect x="0" width="301" y="0" height="23"/></clipPath></defs><rect x="-37.5" width="450" fill="#ffffff" y="-37.499999" height="449.999989" fill-opacity="1"/><rect x="-37.5" width="450" fill="#fbfaf9" y="-37.499999" height="449.999989" fill-opacity="1"/><g fill="#231f20" fill-opacity="1"><g transform="translate(21.461177, 190.000636)"><g><path d="M 26.519531 -63.480469 L 3.007812 -63.480469 L 3.007812 -62.914062 L 8.085938 -58.023438 L 8.085938 -5.453125 L 3.007812 -0.5625 L 3.007812 0 L 26.707031 0 C 53.605469 0 61.316406 -18.246094 61.316406 -33.292969 C 61.316406 -53.511719 49.558594 -63.480469 26.519531 -63.480469 Z M 26.425781 -1.878906 L 26.425781 -61.785156 L 26.894531 -61.785156 C 38.839844 -61.785156 41.941406 -52.851562 41.941406 -31.785156 C 41.941406 -9.59375 38.652344 -1.878906 28.210938 -1.878906 Z M 26.425781 -1.878906 "/></g></g></g><g fill="#ff914d" fill-opacity="1"><g transform="translate(82.304923, 190.000636)"><g><path d="M 7.804688 -5.832031 L 3.007812 -0.5625 L 3.007812 0 L 31.035156 0 L 31.035156 -0.5625 L 26.238281 -5.832031 L 26.238281 -57.648438 L 31.035156 -62.914062 L 31.035156 -63.480469 L 3.007812 -63.480469 L 3.007812 -62.914062 L 7.804688 -57.648438 Z M 7.804688 -5.832031 "/></g></g></g><g fill="#231f20" fill-opacity="1"><g transform="translate(113.523671, 190.000636)"><g><path d="M 35.640625 -62.914062 C 46.457031 -51.722656 55.015625 -34.984375 55.015625 -18.902344 L 55.015625 -13.355469 L 54.449219 -13.355469 L 23.792969 -63.480469 L 1.410156 -63.480469 L 1.410156 -63.007812 L 7.804688 -53.039062 L 7.804688 0 L 29.625 0 L 29.625 -0.5625 C 18.054688 -11.945312 9.96875 -25.769531 9.96875 -43.730469 L 9.96875 -49.9375 L 10.4375 -49.9375 L 41.191406 0.1875 L 57.082031 0.1875 L 57.082031 -63.480469 L 35.640625 -63.480469 Z M 35.640625 -62.914062 "/></g></g></g><g fill="#5e17eb" fill-opacity="1"><g transform="translate(174.086167, 190.000636)"><g><path d="M 54.828125 -26.707031 C 52.757812 -23.605469 51.066406 -20.878906 49.558594 -18.527344 C 41.097656 -4.890625 38.933594 -1.691406 27.929688 -1.691406 L 26.425781 -1.691406 L 26.425781 -31.222656 L 27.367188 -31.222656 C 32.445312 -31.222656 36.207031 -28.964844 42.132812 -18.246094 L 42.695312 -18.246094 L 42.695312 -45.796875 L 42.132812 -45.796875 C 36.113281 -34.324219 32.445312 -32.820312 27.367188 -32.820312 L 26.425781 -32.820312 L 26.425781 -61.785156 L 27.367188 -61.785156 C 38.371094 -61.785156 40.53125 -58.589844 48.996094 -44.953125 L 54.261719 -36.769531 L 54.828125 -36.769531 L 54.828125 -63.480469 L 3.007812 -63.480469 L 3.007812 -62.914062 L 8.085938 -58.023438 L 8.085938 -5.453125 L 3.007812 -0.5625 L 3.007812 0 L 55.390625 0 L 55.390625 -26.707031 Z M 54.828125 -26.707031 "/></g></g></g><g fill="#231f20" fill-opacity="1"><g transform="translate(232.199448, 190.000636)"><g><path d="M 29.339844 -43.449219 C 17.773438 -50.3125 13.164062 -52.851562 13.164062 -56.800781 C 13.164062 -58.964844 14.765625 -60.46875 17.867188 -60.46875 C 27.273438 -60.46875 40.34375 -51.535156 50.972656 -37.242188 L 51.535156 -37.242188 L 51.535156 -64.511719 L 51.066406 -64.511719 L 45.046875 -60.75 C 41.566406 -62.914062 36.300781 -64.703125 29.71875 -64.703125 C 16.644531 -64.703125 6.019531 -59.90625 5.832031 -46.550781 C 5.640625 -36.300781 12.320312 -31.503906 20.21875 -26.800781 L 31.128906 -20.125 C 40.0625 -14.859375 47.773438 -11.285156 47.773438 -7.054688 C 47.773438 -5.265625 46.550781 -3.386719 42.320312 -3.386719 C 35.171875 -3.386719 15.707031 -8.933594 4.324219 -31.503906 L 3.667969 -31.410156 L 5.265625 -2.445312 C 13.730469 -1.222656 21.441406 1.878906 30.5625 1.878906 C 46.832031 1.878906 54.921875 -8.085938 54.921875 -18.148438 C 54.921875 -26.144531 49.75 -31.222656 40.625 -36.582031 Z M 29.339844 -43.449219 "/></g></g></g><g fill="#ff5757" fill-opacity="1"><g transform="translate(287.406472, 190.000636)"><g><path d="M 63.195312 -63.480469 L 35.078125 -63.480469 L 35.078125 -62.914062 L 39.96875 -57.648438 L 39.96875 -31.597656 L 26.238281 -31.597656 L 26.238281 -57.648438 L 31.035156 -62.914062 L 31.035156 -63.480469 L 3.007812 -63.480469 L 3.007812 -62.914062 L 7.804688 -57.648438 L 7.804688 -5.832031 L 3.007812 -0.5625 L 3.007812 0 L 31.035156 0 L 31.035156 -0.5625 L 26.238281 -5.832031 L 26.238281 -29.90625 L 39.96875 -29.90625 L 39.96875 -5.832031 L 35.078125 -0.5625 L 35.078125 0 L 63.195312 0 L 63.195312 -0.5625 L 58.304688 -5.832031 L 58.304688 -57.648438 L 63.195312 -62.914062 Z M 63.195312 -63.480469 "/></g></g></g><g mask="url(#51b813b37d)"><g transform="matrix(1, 0, 0, 1, 37, 149)"><g clip-path="url(#7a42bef5ed)"><g clip-path="url(#2b12c45bb4)"><path fill="#fbfaf9" d="M 0.5 0.445312 L 300.5 0.445312 L 300.5 22.722656 L 0.5 22.722656 Z M 0.5 0.445312 " fill-opacity="1" fill-rule="nonzero"/></g></g></g></g><g fill="#523fb2" fill-opacity="1"><g transform="translate(61.608772, 165.259194)"><g><path d="M 0.636719 0 L 2.445312 0 L 2.445312 -5.777344 L 2.464844 -5.777344 L 4.828125 0 L 6.4375 0 L 8.789062 -5.789062 L 8.8125 -5.789062 L 8.8125 0 L 10.628906 0 L 10.628906 -8.246094 L 8.070312 -8.246094 L 5.652344 -2.210938 L 5.628906 -2.210938 L 3.21875 -8.246094 L 0.636719 -8.246094 Z M 0.636719 0 "/></g></g></g><g fill="#523fb2" fill-opacity="1"><g transform="translate(82.142797, 165.259194)"><g><path d="M 0.0585938 0 L 2.128906 0 L 2.664062 -1.621094 L 5.835938 -1.621094 L 6.367188 0 L 8.441406 0 L 5.464844 -8.246094 L 3.046875 -8.246094 Z M 3.023438 -3.023438 L 4.238281 -6.683594 L 4.261719 -6.683594 L 5.476562 -3.023438 Z M 3.023438 -3.023438 "/></g></g></g><g fill="#523fb2" fill-opacity="1"><g transform="translate(99.909641, 165.259194)"><g><path d="M 0.636719 0 L 2.617188 0 L 2.617188 -3.472656 L 5.988281 -3.472656 L 5.988281 0 L 7.96875 0 L 7.96875 -8.246094 L 5.988281 -8.246094 L 5.988281 -5.058594 L 2.617188 -5.058594 L 2.617188 -8.246094 L 0.636719 -8.246094 Z M 0.636719 0 "/></g></g></g><g fill="#523fb2" fill-opacity="1"><g transform="translate(117.780685, 165.259194)"><g><path d="M 0.0585938 0 L 2.128906 0 L 2.664062 -1.621094 L 5.835938 -1.621094 L 6.367188 0 L 8.441406 0 L 5.464844 -8.246094 L 3.046875 -8.246094 Z M 3.023438 -3.023438 L 4.238281 -6.683594 L 4.261719 -6.683594 L 5.476562 -3.023438 Z M 3.023438 -3.023438 "/></g></g></g><g fill="#523fb2" fill-opacity="1"><g transform="translate(135.547528, 165.259194)"><g><path d="M 2.640625 0 L 4.621094 0 L 4.621094 -6.554688 L 7.085938 -6.554688 L 7.085938 -8.246094 L 0.171875 -8.246094 L 0.171875 -6.554688 L 2.640625 -6.554688 Z M 2.640625 0 "/></g></g></g><g fill="#523fb2" fill-opacity="1"><g transform="translate(152.075502, 165.259194)"><g><path d="M 0.0585938 0 L 2.128906 0 L 2.664062 -1.621094 L 5.835938 -1.621094 L 6.367188 0 L 8.441406 0 L 5.464844 -8.246094 L 3.046875 -8.246094 Z M 3.023438 -3.023438 L 4.238281 -6.683594 L 4.261719 -6.683594 L 5.476562 -3.023438 Z M 3.023438 -3.023438 "/></g></g></g><g fill="#523fb2" fill-opacity="1"><g transform="translate(169.84235, 165.259194)"><g><path d="M 6.796875 0.207031 C 7.457031 0.207031 8.070312 -0.0585938 8.476562 -0.464844 L 8.058594 -1.402344 C 7.910156 -1.203125 7.6875 -1.066406 7.480469 -1.066406 C 7.238281 -1.066406 7.085938 -1.261719 7.015625 -1.503906 L 6.75 -2.476562 C 6.613281 -2.953125 6.378906 -3.277344 5.953125 -3.449219 L 5.953125 -3.460938 C 7.179688 -3.761719 7.910156 -4.609375 7.910156 -5.699219 C 7.910156 -7.273438 6.691406 -8.246094 4.734375 -8.246094 L 0.636719 -8.246094 L 0.636719 0 L 2.617188 0 L 2.617188 -3.113281 L 3.878906 -3.113281 C 4.355469 -3.113281 4.691406 -2.746094 4.828125 -2.257812 L 5.1875 -1.054688 C 5.417969 -0.277344 5.976562 0.207031 6.796875 0.207031 Z M 2.617188 -4.46875 L 2.617188 -6.785156 L 4.480469 -6.785156 C 5.363281 -6.785156 5.929688 -6.324219 5.929688 -5.628906 C 5.929688 -4.921875 5.363281 -4.46875 4.480469 -4.46875 Z M 2.617188 -4.46875 "/></g></g></g><g fill="#523fb2" fill-opacity="1"><g transform="translate(187.643931, 165.259194)"><g><path d="M 0.0585938 0 L 2.128906 0 L 2.664062 -1.621094 L 5.835938 -1.621094 L 6.367188 0 L 8.441406 0 L 5.464844 -8.246094 L 3.046875 -8.246094 Z M 3.023438 -3.023438 L 4.238281 -6.683594 L 4.261719 -6.683594 L 5.476562 -3.023438 Z M 3.023438 -3.023438 "/></g></g></g><g fill="#523fb2" fill-opacity="1"><g transform="translate(205.41078, 165.259194)"><g><path d="M 4.816406 0.289062 C 7.179688 0.289062 8.835938 -1.101562 9.089844 -3.289062 L 7.238281 -3.542969 C 7.039062 -2.246094 6.101562 -1.414062 4.839844 -1.414062 C 3.3125 -1.414062 2.339844 -2.464844 2.328125 -4.121094 C 2.328125 -5.789062 3.207031 -6.84375 4.597656 -6.84375 C 5.675781 -6.84375 6.390625 -6.148438 6.601562 -5.039062 L 8.40625 -5.488281 C 8.117188 -7.351562 6.625 -8.535156 4.597656 -8.535156 C 1.992188 -8.535156 0.347656 -6.820312 0.347656 -4.121094 C 0.347656 -1.425781 2.085938 0.289062 4.816406 0.289062 Z M 4.816406 0.289062 "/></g></g></g><g fill="#523fb2" fill-opacity="1"><g transform="translate(223.964936, 165.259194)"><g><path d="M 0.636719 0 L 2.617188 0 L 2.617188 -3.472656 L 5.988281 -3.472656 L 5.988281 0 L 7.96875 0 L 7.96875 -8.246094 L 5.988281 -8.246094 L 5.988281 -5.058594 L 2.617188 -5.058594 L 2.617188 -8.246094 L 0.636719 -8.246094 Z M 0.636719 0 "/></g></g></g><g fill="#523fb2" fill-opacity="1"><g transform="translate(241.835982, 165.259194)"><g><path d="M 0.636719 0 L 2.617188 0 L 2.617188 -3.472656 L 5.988281 -3.472656 L 5.988281 0 L 7.96875 0 L 7.96875 -8.246094 L 5.988281 -8.246094 L 5.988281 -5.058594 L 2.617188 -5.058594 L 2.617188 -8.246094 L 0.636719 -8.246094 Z M 0.636719 0 "/></g></g></g><g fill="#523fb2" fill-opacity="1"><g transform="translate(259.707018, 165.259194)"><g><path d="M 0.636719 0 L 6.554688 0 L 6.554688 -1.585938 L 2.546875 -1.585938 L 2.546875 -3.519531 L 5.976562 -3.519531 L 5.976562 -4.921875 L 2.546875 -4.921875 L 2.546875 -6.671875 L 6.4375 -6.671875 L 6.4375 -8.246094 L 0.636719 -8.246094 Z M 0.636719 0 "/></g></g></g><g fill="#523fb2" fill-opacity="1"><g transform="translate(275.783448, 165.259194)"><g><path d="M 2.640625 0 L 4.621094 0 L 4.621094 -6.554688 L 7.085938 -6.554688 L 7.085938 -8.246094 L 0.171875 -8.246094 L 0.171875 -6.554688 L 2.640625 -6.554688 Z M 2.640625 0 "/></g></g></g><g fill="#523fb2" fill-opacity="1"><g transform="translate(292.311416, 165.259194)"><g><path d="M 6.796875 0.207031 C 7.457031 0.207031 8.070312 -0.0585938 8.476562 -0.464844 L 8.058594 -1.402344 C 7.910156 -1.203125 7.6875 -1.066406 7.480469 -1.066406 C 7.238281 -1.066406 7.085938 -1.261719 7.015625 -1.503906 L 6.75 -2.476562 C 6.613281 -2.953125 6.378906 -3.277344 5.953125 -3.449219 L 5.953125 -3.460938 C 7.179688 -3.761719 7.910156 -4.609375 7.910156 -5.699219 C 7.910156 -7.273438 6.691406 -8.246094 4.734375 -8.246094 L 0.636719 -8.246094 L 0.636719 0 L 2.617188 0 L 2.617188 -3.113281 L 3.878906 -3.113281 C 4.355469 -3.113281 4.691406 -2.746094 4.828125 -2.257812 L 5.1875 -1.054688 C 5.417969 -0.277344 5.976562 0.207031 6.796875 0.207031 Z M 2.617188 -4.46875 L 2.617188 -6.785156 L 4.480469 -6.785156 C 5.363281 -6.785156 5.929688 -6.324219 5.929688 -5.628906 C 5.929688 -4.921875 5.363281 -4.46875 4.480469 -4.46875 Z M 2.617188 -4.46875 "/></g></g></g><g fill="#523fb2" fill-opacity="1"><g transform="translate(310.112997, 165.259194)"><g><path d="M 0.636719 0 L 2.617188 0 L 2.617188 -8.246094 L 0.636719 -8.246094 Z M 0.636719 0 "/></g></g></g></svg>